<svg xmlns="http://www.w3.org/2000/svg"><path d="M0 6 L4 8 L7 3 L11 1 L14 2 L18 6 L21 7 L25 19 L29 8 L32 11 L36 13 L39 14 L43 11 L46 10 L50 14 L53 19 L57 20 L61 22 L64 18 L68 15 L71 11 L75 10 L78 1 L82 13 L86 16 L89 8 L93 5 L96 7 L100 10 L103 3 L107 10 L111 8 L114 11 L118 5 L121 3 L125 6 L128 6 L132 9 L135 10 L139 15 L143 15 L146 10 L150 17 L153 15 L157 21 L160 28 L164 22 L168 20" stroke="rgba(240, 185, 10, 1)" stroke-width="1" stroke-linecap="round" stroke-linejoin="round" transform="scale(3)" fill="none"/></svg>
