<svg width="1600" height="901" viewBox="0 0 1600 901" fill="none" xmlns="http://www.w3.org/2000/svg">
<g clip-path="url(#clip0)">
<rect width="1600" height="900" transform="translate(0 0.125)" fill="#1E2026"/>
<rect y="0.125" width="600.75" height="901.125" fill="#0B0E11"/>
<rect x="600.75" y="0.125" width="200.25" height="200.25" fill="#0B0E11"/>
<rect x="801" y="200.375" width="200.25" height="200.25" fill="#0B0E11"/>
<rect x="400.5" y="200.375" width="200.25" height="200.25" fill="#0B0E11"/>
<rect x="801" y="400.625" width="200.25" height="200.25" fill="#0B0E11"/>
<rect x="500.624" y="400.625" width="200.25" height="200.25" fill="#0B0E11"/>
<rect x="1001.25" y="600.875" width="200.25" height="200.25" fill="#0B0E11"/>
<rect x="600.75" y="600.875" width="200.25" height="200.25" fill="#0B0E11"/>
<rect x="801" y="801.125" width="200.25" height="100.125" fill="#0B0E11"/>
<rect x="1001.25" y="0.125" width="100.125" height="200.25" fill="#0B0E11"/>
<rect x="1201.5" y="200.375" width="100.125" height="200.25" fill="#0B0E11"/>
<rect x="1401.75" y="200.375" width="100.125" height="100.125" fill="#0B0E11"/>
<rect x="1301.62" y="100.25" width="100.125" height="100.125" fill="#0B0E11"/>
<rect x="1301.62" y="500.75" width="100.125" height="100.125" fill="#0B0E11"/>
<rect x="801" y="100.25" width="100.125" height="100.125" fill="#0B0E11"/>
<rect x="1001.25" y="400.625" width="100.125" height="100.125" fill="#0B0E11"/>
<rect x="1101.37" y="801.125" width="200.25" height="100.125" fill="#0B0E11"/>
<path d="M1001.25 400.625L1201.5 200.375H1001.25V400.625Z" fill="url(#paint0_linear)"/>
<path d="M1101.37 600.875L1301.62 400.625H1101.37V600.875Z" fill="url(#paint1_linear)"/>
<path d="M801 801.125L1001.25 600.875H801V801.125Z" fill="url(#paint2_linear)"/>
<path d="M1301.62 500.75L1501.88 300.5H1301.62V500.75Z" fill="url(#paint3_linear)"/>
<path d="M1101.37 100.25L1201.5 0.124977H1101.37V100.25Z" fill="url(#paint4_linear)"/>
<path d="M1401.75 100.25L1501.87 0.124977H1401.75V100.25Z" fill="url(#paint5_linear)"/>
<path d="M1201.5 701L1301.63 600.875H1201.5V701Z" fill="url(#paint6_linear)"/>
<path d="M600.75 300.5L700.875 200.375H600.75V300.5Z" fill="url(#paint7_linear)"/>
<path d="M400.5 200.375L500.625 100.25H400.5V200.375Z" fill="url(#paint8_linear)"/>
<path d="M801 100.25L700.874 200.375L801 200.375L801 100.25Z" fill="url(#paint9_linear)"/>
<path d="M1602 200.375L1501.87 100.25L1501.87 200.375L1602 200.375Z" fill="url(#paint10_linear)"/>
<path d="M1501.88 701L1401.75 600.875L1401.75 701L1501.88 701Z" fill="url(#paint11_linear)"/>
<path d="M700.875 500.75L801 400.625H700.875V500.75Z" fill="url(#paint12_linear)"/>
<path d="M801 400.625L700.874 300.5L700.874 400.625L801 400.625Z" fill="url(#paint13_linear)"/>
<path d="M700.875 600.875L600.75 500.75L600.75 600.875L700.875 600.875Z" fill="url(#paint14_linear)"/>
<path d="M901.125 300.5L801 200.375L801 300.5L901.125 300.5Z" fill="url(#paint15_linear)"/>
<path d="M1101.37 300.5L1001.25 200.375L1001.25 300.5L1101.37 300.5Z" fill="url(#paint16_linear)"/>
<path d="M1201.5 701L1101.37 600.875L1101.37 701L1201.5 701Z" fill="url(#paint17_linear)"/>
<path d="M1301.62 400.625L1401.75 300.5H1301.62V400.625Z" fill="url(#paint18_linear)"/>
<path d="M1301.62 300.5L1201.5 200.375L1201.5 300.5L1301.62 300.5Z" fill="url(#paint19_linear)"/>
<path d="M1301.62 901.25L1201.5 801.125L1201.5 901.25L1301.62 901.25Z" fill="url(#paint20_linear)"/>
<path d="M801 701L700.874 600.875L700.874 701L801 701Z" fill="url(#paint21_linear)"/>
<path d="M1101.37 801.125L1001.25 701L1001.25 801.125L1101.37 801.125Z" fill="url(#paint22_linear)"/>
<path d="M901.125 901.25L801 801.125L801 901.25L901.125 901.25Z" fill="url(#paint23_linear)"/>
<path d="M1401.75 801.125L1301.62 701L1301.62 801.125L1401.75 801.125Z" fill="url(#paint24_linear)"/>
<path d="M901.125 600.875L1001.25 500.75H901.125V600.875Z" fill="url(#paint25_linear)"/>
<path d="M600.75 801.125L400.5 600.875L400.5 801.125L600.75 801.125Z" fill="url(#paint26_linear)"/>
<path d="M400.5 400.625L200.249 200.375L200.249 400.625L400.5 400.625Z" fill="url(#paint27_linear)"/>
<path d="M600.75 901.25L700.875 801.125H600.75V901.25Z" fill="url(#paint28_linear)"/>
<path d="M801 100.25L901.125 0.124977H801V100.25Z" fill="url(#paint29_linear)"/>
</g>
<defs>
<linearGradient id="paint0_linear" x1="1001.25" y1="200.375" x2="1201.5" y2="200.375" gradientUnits="userSpaceOnUse">
<stop stop-color="#0B0E11"/>
<stop offset="1" stop-color="#1E2026"/>
</linearGradient>
<linearGradient id="paint1_linear" x1="1101.37" y1="400.625" x2="1301.62" y2="400.625" gradientUnits="userSpaceOnUse">
<stop stop-color="#0B0E11"/>
<stop offset="1" stop-color="#1E2026"/>
</linearGradient>
<linearGradient id="paint2_linear" x1="801" y1="600.875" x2="1001.25" y2="600.875" gradientUnits="userSpaceOnUse">
<stop stop-color="#0B0E11"/>
<stop offset="1" stop-color="#1E2026"/>
</linearGradient>
<linearGradient id="paint3_linear" x1="1301.62" y1="300.5" x2="1501.88" y2="300.5" gradientUnits="userSpaceOnUse">
<stop stop-color="#0B0E11"/>
<stop offset="1" stop-color="#1E2026"/>
</linearGradient>
<linearGradient id="paint4_linear" x1="1101.37" y1="0.124971" x2="1201.5" y2="0.124971" gradientUnits="userSpaceOnUse">
<stop stop-color="#0B0E11"/>
<stop offset="1" stop-color="#1E2026"/>
</linearGradient>
<linearGradient id="paint5_linear" x1="1401.75" y1="0.124971" x2="1501.87" y2="0.124971" gradientUnits="userSpaceOnUse">
<stop stop-color="#0B0E11"/>
<stop offset="1" stop-color="#1E2026"/>
</linearGradient>
<linearGradient id="paint6_linear" x1="1201.5" y1="600.875" x2="1301.63" y2="600.875" gradientUnits="userSpaceOnUse">
<stop stop-color="#0B0E11"/>
<stop offset="1" stop-color="#1E2026"/>
</linearGradient>
<linearGradient id="paint7_linear" x1="600.75" y1="200.375" x2="700.875" y2="200.375" gradientUnits="userSpaceOnUse">
<stop stop-color="#0B0E11"/>
<stop offset="1" stop-color="#1E2026"/>
</linearGradient>
<linearGradient id="paint8_linear" x1="400.5" y1="100.25" x2="500.625" y2="100.25" gradientUnits="userSpaceOnUse">
<stop stop-color="#0B0E11"/>
<stop offset="1" stop-color="#1E2026"/>
</linearGradient>
<linearGradient id="paint9_linear" x1="801" y1="200.375" x2="700.874" y2="200.375" gradientUnits="userSpaceOnUse">
<stop stop-color="#0B0E11"/>
<stop offset="1" stop-color="#1E2026"/>
</linearGradient>
<linearGradient id="paint10_linear" x1="1501.87" y1="200.375" x2="1602" y2="200.375" gradientUnits="userSpaceOnUse">
<stop stop-color="#0B0E11"/>
<stop offset="1" stop-color="#1E2026"/>
</linearGradient>
<linearGradient id="paint11_linear" x1="1401.75" y1="701" x2="1501.88" y2="701" gradientUnits="userSpaceOnUse">
<stop stop-color="#0B0E11"/>
<stop offset="1" stop-color="#1E2026"/>
</linearGradient>
<linearGradient id="paint12_linear" x1="700.875" y1="400.625" x2="700.875" y2="500.75" gradientUnits="userSpaceOnUse">
<stop stop-color="#0B0E11"/>
<stop offset="1" stop-color="#1E2026"/>
</linearGradient>
<linearGradient id="paint13_linear" x1="700.874" y1="400.625" x2="801" y2="400.625" gradientUnits="userSpaceOnUse">
<stop stop-color="#0B0E11"/>
<stop offset="1" stop-color="#1E2026"/>
</linearGradient>
<linearGradient id="paint14_linear" x1="600.75" y1="600.875" x2="700.875" y2="600.875" gradientUnits="userSpaceOnUse">
<stop stop-color="#0B0E11"/>
<stop offset="1" stop-color="#1E2026"/>
</linearGradient>
<linearGradient id="paint15_linear" x1="801" y1="300.5" x2="901.125" y2="300.5" gradientUnits="userSpaceOnUse">
<stop stop-color="#0B0E11"/>
<stop offset="1" stop-color="#1E2026"/>
</linearGradient>
<linearGradient id="paint16_linear" x1="1001.25" y1="300.5" x2="1101.37" y2="300.5" gradientUnits="userSpaceOnUse">
<stop stop-color="#0B0E11"/>
<stop offset="1" stop-color="#1E2026"/>
</linearGradient>
<linearGradient id="paint17_linear" x1="1101.37" y1="701" x2="1201.5" y2="701" gradientUnits="userSpaceOnUse">
<stop stop-color="#0B0E11"/>
<stop offset="1" stop-color="#1E2026"/>
</linearGradient>
<linearGradient id="paint18_linear" x1="1301.62" y1="300.5" x2="1301.62" y2="400.625" gradientUnits="userSpaceOnUse">
<stop stop-color="#0B0E11"/>
<stop offset="1" stop-color="#1E2026"/>
</linearGradient>
<linearGradient id="paint19_linear" x1="1201.5" y1="300.5" x2="1301.62" y2="300.5" gradientUnits="userSpaceOnUse">
<stop stop-color="#0B0E11"/>
<stop offset="1" stop-color="#1E2026"/>
</linearGradient>
<linearGradient id="paint20_linear" x1="1201.5" y1="901.25" x2="1301.62" y2="901.25" gradientUnits="userSpaceOnUse">
<stop stop-color="#0B0E11"/>
<stop offset="1" stop-color="#1E2026"/>
</linearGradient>
<linearGradient id="paint21_linear" x1="700.874" y1="701" x2="801" y2="701" gradientUnits="userSpaceOnUse">
<stop stop-color="#0B0E11"/>
<stop offset="1" stop-color="#1E2026"/>
</linearGradient>
<linearGradient id="paint22_linear" x1="1001.25" y1="801.125" x2="1101.37" y2="801.125" gradientUnits="userSpaceOnUse">
<stop stop-color="#0B0E11"/>
<stop offset="1" stop-color="#1E2026"/>
</linearGradient>
<linearGradient id="paint23_linear" x1="801" y1="901.25" x2="901.125" y2="901.25" gradientUnits="userSpaceOnUse">
<stop stop-color="#0B0E11"/>
<stop offset="1" stop-color="#1E2026"/>
</linearGradient>
<linearGradient id="paint24_linear" x1="1301.62" y1="801.125" x2="1401.75" y2="801.125" gradientUnits="userSpaceOnUse">
<stop stop-color="#0B0E11"/>
<stop offset="1" stop-color="#1E2026"/>
</linearGradient>
<linearGradient id="paint25_linear" x1="901.125" y1="500.75" x2="901.125" y2="600.875" gradientUnits="userSpaceOnUse">
<stop stop-color="#0B0E11"/>
<stop offset="1" stop-color="#1E2026"/>
</linearGradient>
<linearGradient id="paint26_linear" x1="400.5" y1="801.125" x2="600.75" y2="801.125" gradientUnits="userSpaceOnUse">
<stop stop-color="#0B0E11"/>
<stop offset="1" stop-color="#1E2026"/>
</linearGradient>
<linearGradient id="paint27_linear" x1="200.249" y1="400.625" x2="400.5" y2="400.625" gradientUnits="userSpaceOnUse">
<stop stop-color="#0B0E11"/>
<stop offset="1" stop-color="#1E2026"/>
</linearGradient>
<linearGradient id="paint28_linear" x1="600.75" y1="801.125" x2="700.875" y2="801.125" gradientUnits="userSpaceOnUse">
<stop stop-color="#0B0E11"/>
<stop offset="1" stop-color="#1E2026"/>
</linearGradient>
<linearGradient id="paint29_linear" x1="801" y1="0.124971" x2="901.125" y2="0.124971" gradientUnits="userSpaceOnUse">
<stop stop-color="#0B0E11"/>
<stop offset="1" stop-color="#1E2026"/>
</linearGradient>
<clipPath id="clip0">
<rect width="1600" height="900" fill="white" transform="translate(0 0.125)"/>
</clipPath>
</defs>
</svg>
