<?xml version="1.0" encoding="UTF-8" standalone="no"?>
<!-- Created with Inkscape (http://www.inkscape.org/) -->
<svg
   xmlns:dc="http://purl.org/dc/elements/1.1/"
   xmlns:cc="http://web.resource.org/cc/"
   xmlns:rdf="http://www.w3.org/1999/02/22-rdf-syntax-ns#"
   xmlns:svg="http://www.w3.org/2000/svg"
   xmlns="http://www.w3.org/2000/svg"
   xmlns:sodipodi="http://sodipodi.sourceforge.net/DTD/sodipodi-0.dtd"
   xmlns:inkscape="http://www.inkscape.org/namespaces/inkscape"
   width="294.888"
   height="36.799999"
   id="svg2270"
   sodipodi:version="0.32"
   inkscape:version="0.45.1"
   version="1.0"
   sodipodi:docbase="C:\Documents and Settings\Casa\Desktop"
   sodipodi:docname="Sony_Ericsson_wordmark.svg"
   inkscape:output_extension="org.inkscape.output.svg.inkscape">
  <defs
     id="defs2272" />
  <sodipodi:namedview
     id="base"
     pagecolor="#ffffff"
     bordercolor="#666666"
     borderopacity="1.0"
     inkscape:pageopacity="0.0"
     inkscape:pageshadow="2"
     inkscape:zoom="0.35"
     inkscape:cx="350"
     inkscape:cy="520"
     inkscape:document-units="px"
     inkscape:current-layer="layer1" />
  <metadata
     id="metadata2275">
    <rdf:RDF>
      <cc:Work
         rdf:about="">
        <dc:format>image/svg+xml</dc:format>
        <dc:type
           rdf:resource="http://purl.org/dc/dcmitype/StillImage" />
      </cc:Work>
    </rdf:RDF>
  </metadata>
  <g
     inkscape:label="Camada 1"
     inkscape:groupmode="layer"
     id="layer1" />
  <g
     id="g85"
     transform="translate(0.1288199,-154.88178)">
	<path
   d="M 179.597,182.503 C 176.924,182.035 175.347,180.716 174.915,178.369 C 174.836,177.929 174.798,177.385 174.798,174.381 L 174.798,169.904 C 174.798,167.338 174.845,166.585 174.932,166.147 C 175.361,164.123 176.795,162.688 179.547,162.138 C 180.358,161.979 181.133,161.891 185.943,161.891 C 185.943,161.891 192.223,161.891 192.363,161.891 C 192.363,162.247 192.363,165.498 192.363,165.852 C 191.969,165.852 185.721,165.852 185.721,165.852 C 182.115,165.852 181.619,165.919 181.276,166.037 C 180.605,166.266 180.229,166.691 180.043,167.242 C 179.94,167.541 179.9,168.158 179.9,169.957 L 179.9,174.218 C 179.9,176.51 179.946,177.126 180.063,177.432 C 180.255,177.934 180.646,178.305 181.305,178.516 C 181.753,178.664 182.333,178.736 185.882,178.736 C 185.882,178.736 192.33,178.736 192.733,178.736 C 192.733,179.098 192.733,182.35 192.733,182.705 C 192.331,182.705 185.552,182.705 185.552,182.705 C 181.133,182.707 180.37,182.641 179.597,182.503 z "
   id="path87"
   style="fill:#6d6f71" />

	<path
   d="M 146.131,170.121 C 146.131,166.462 146.213,166.147 146.376,165.639 C 146.892,164.006 148.198,162.828 150.032,162.261 C 150.831,162.016 151.752,161.886 156.122,161.886 C 156.122,161.886 159.145,161.886 159.288,161.886 C 159.288,162.245 159.288,165.525 159.288,165.88 C 158.909,165.88 156.014,165.88 156.014,165.88 C 153.06,165.88 152.594,165.957 152.285,166.083 C 151.827,166.268 151.574,166.549 151.437,166.823 C 151.294,167.097 151.27,167.444 151.27,169.522 C 151.27,169.522 151.27,182.31 151.27,182.713 C 150.862,182.713 146.541,182.713 146.13,182.713 C 146.131,182.309 146.131,170.121 146.131,170.121 z "
   id="path89"
   style="fill:#6d6f71" />

	<path
   d="M 196.769,167.235 L 196.769,167.235 L 196.769,167.235 M 196.769,167.235 L 196.769,167.235 L 196.769,167.235 z "
   id="path91"
   style="fill:#6d6f71" />

	<path
   d="M 230.547,173.912 C 228.039,173.912 226.809,173.829 226.019,173.668 C 223.649,173.18 222.083,171.945 221.594,169.919 C 221.491,169.485 221.436,168.62 221.436,167.94 L 221.436,167.765 C 221.436,166.487 221.53,165.783 221.707,165.264 C 222.313,163.524 223.888,162.518 226.237,162.107 C 227.269,161.949 228.692,161.885 232.788,161.885 C 232.788,161.885 240.421,161.885 240.563,161.885 C 240.563,162.249 240.563,165.521 240.563,165.873 C 240.161,165.873 228.995,165.873 228.995,165.873 C 226.876,165.873 226.494,166.512 226.494,167.898 C 226.494,169.135 226.791,169.976 229.036,169.976 L 232.127,169.976 C 235.027,169.976 235.756,170.053 236.506,170.199 C 239.424,170.748 240.765,172.287 241.205,174.105 C 241.319,174.588 241.368,175.515 241.368,176.274 L 241.368,176.517 C 241.368,177.411 241.325,178.242 241.231,178.701 C 240.802,180.773 239.785,182.078 236.943,182.54 C 236.138,182.674 235.541,182.698 231.826,182.698 C 231.826,182.698 222.015,182.698 221.619,182.698 C 221.619,182.345 221.619,179.079 221.619,178.725 C 222.015,178.725 233.328,178.725 233.328,178.725 C 235.488,178.725 236.275,178.475 236.275,176.312 C 236.275,174.41 235.374,173.911 233.287,173.911 L 230.547,173.911 L 230.547,173.912 z "
   id="path93"
   style="fill:#6d6f71" />

	<path
   d="M 206.151,173.912 C 203.632,173.912 202.414,173.829 201.621,173.668 C 199.251,173.18 197.673,171.945 197.195,169.919 C 197.092,169.485 197.038,168.62 197.038,167.94 L 197.038,167.765 C 197.038,166.487 197.131,165.783 197.311,165.264 C 197.909,163.524 199.489,162.518 201.836,162.107 C 202.87,161.949 204.296,161.885 208.39,161.885 C 208.39,161.885 216.022,161.885 216.16,161.885 C 216.16,162.249 216.16,165.521 216.16,165.873 C 215.761,165.873 204.597,165.873 204.597,165.873 C 202.48,165.873 202.095,166.512 202.095,167.898 C 202.095,169.135 202.39,169.976 204.629,169.976 L 207.731,169.976 C 210.629,169.976 211.358,170.053 212.11,170.199 C 215.025,170.748 216.367,172.287 216.807,174.105 C 216.92,174.588 216.97,175.515 216.97,176.274 L 216.97,176.517 C 216.97,177.411 216.926,178.242 216.829,178.701 C 216.401,180.773 215.387,182.078 212.553,182.54 C 211.74,182.674 211.142,182.698 207.428,182.698 C 207.428,182.698 197.62,182.698 197.221,182.698 C 197.221,182.345 197.221,179.079 197.221,178.725 C 197.62,178.725 208.929,178.725 208.929,178.725 C 211.092,178.725 211.87,178.475 211.87,176.312 C 211.87,174.41 210.97,173.911 208.888,173.911 L 206.151,173.911 L 206.151,173.912 z "
   id="path95"
   style="fill:#6d6f71" />

	<path
   d="M 13.263,178.502 C 15.814,178.502 16.923,177.847 17.281,176.749 C 17.379,176.45 17.456,176.036 17.456,175.005 L 17.456,174.403 C 17.456,173.463 17.375,172.94 17.275,172.622 C 16.883,171.369 15.676,170.871 13.299,170.871 L 8.22,170.865 C 3.44,170.865 0.631,168.613 0.099,165.473 C 0.035,165.1 0,164.282 0,163.024 L 0,162.7 C 0,161.59 0.023,160.696 0.067,160.359 C 0.482,157.174 2.871,155.377 6.947,154.925 C 7.939,154.79 9.819,154.811 10.885,154.811 C 10.885,154.811 21.073,154.811 21.214,154.811 C 21.214,155.17 21.214,158.702 21.214,159.061 C 20.813,159.061 9.184,159.054 9.184,159.054 C 7.116,159.054 5.909,159.482 5.518,160.634 C 5.422,160.918 5.357,161.686 5.357,162.571 L 5.357,162.937 C 5.357,163.894 5.41,164.55 5.48,164.832 C 5.838,166.237 7.09,166.673 9.43,166.673 L 14.421,166.666 C 19.748,166.666 22.301,168.4 22.794,171.801 C 22.85,172.218 22.878,173.42 22.878,173.876 L 22.878,175.001 C 22.878,175.453 22.857,176.642 22.801,177.054 C 22.392,180.253 20.379,182.122 16.669,182.591 C 16.048,182.674 14.275,182.709 11.868,182.709 C 11.868,182.709 0.851,182.709 0.449,182.709 C 0.449,182.349 0.449,178.86 0.449,178.505 C 0.851,178.502 13.263,178.502 13.263,178.502 z "
   id="path97"
   style="fill:#6d6f71" />

	<path
   d="M 49.565,166.169 C 49.054,164.029 47.685,162.639 44.748,162.111 C 44.004,161.992 43.184,161.891 39.476,161.891 L 37.572,161.891 C 34.968,161.891 33.7,161.962 32.825,162.056 C 29.745,162.442 28.171,163.76 27.628,166.034 C 27.471,166.647 27.456,167.48 27.456,170.067 L 27.456,174.044 C 27.456,176.615 27.561,177.973 27.768,178.572 C 28.37,180.337 29.639,181.663 31.802,182.303 C 32.728,182.575 34.179,182.724 37.845,182.724 L 39.7,182.724 C 43.138,182.724 44.243,182.609 45.102,182.387 C 47.428,181.786 48.914,180.384 49.507,178.287 C 49.659,177.746 49.738,176.615 49.738,174.54 L 49.738,170.605 C 49.738,167.835 49.682,166.652 49.565,166.169 M 44.748,174.671 C 44.748,176.543 44.691,177.272 44.578,177.554 C 44.386,178.04 44.028,178.399 43.509,178.616 C 43.113,178.78 42.358,178.867 39.942,178.867 L 37.488,178.867 C 34.982,178.867 33.881,178.785 33.514,178.604 C 33.096,178.397 32.783,178.052 32.608,177.56 C 32.496,177.252 32.441,176.085 32.441,173.853 L 32.441,170.483 C 32.441,168.341 32.484,167.259 32.582,167.008 C 32.773,166.487 33.174,166.132 33.799,165.934 C 34.191,165.809 35.072,165.752 37.121,165.752 L 39.853,165.752 C 41.495,165.752 42.876,165.799 43.253,165.896 C 44.038,166.103 44.449,166.513 44.631,167.115 C 44.713,167.382 44.748,168.523 44.748,170.619 L 44.748,174.671 L 44.748,174.671 z "
   id="path99"
   style="fill:#6d6f71" />

	<path
   d="M 268.088,166.169 C 267.575,164.029 266.208,162.639 263.273,162.111 C 262.526,161.992 261.707,161.891 257.996,161.891 L 256.095,161.891 C 253.498,161.891 252.227,161.962 251.346,162.056 C 248.268,162.442 246.702,163.76 246.145,166.034 C 245.997,166.647 245.979,167.48 245.979,170.067 L 245.979,174.044 C 245.979,176.615 246.084,177.973 246.292,178.572 C 246.893,180.337 248.166,181.663 250.329,182.303 C 251.26,182.575 252.705,182.724 256.364,182.724 L 258.224,182.724 C 261.664,182.724 262.769,182.609 263.626,182.387 C 265.949,181.786 267.442,180.384 268.031,178.287 C 268.182,177.746 268.264,176.615 268.264,174.54 L 268.264,170.605 C 268.264,167.835 268.208,166.652 268.088,166.169 M 263.273,174.671 C 263.273,176.543 263.214,177.272 263.1,177.554 C 262.908,178.04 262.549,178.399 262.031,178.616 C 261.635,178.78 260.885,178.867 258.466,178.867 L 256.008,178.867 C 253.507,178.867 252.404,178.785 252.043,178.604 C 251.617,178.397 251.309,178.052 251.13,177.56 C 251.028,177.252 250.97,176.085 250.97,173.853 L 250.97,170.483 C 250.97,168.341 251.014,167.259 251.108,167.008 C 251.297,166.487 251.694,166.132 252.323,165.934 C 252.719,165.809 253.592,165.752 255.647,165.752 L 258.376,165.752 C 260.015,165.752 261.399,165.799 261.778,165.896 C 262.562,166.103 262.973,166.513 263.151,167.115 C 263.233,167.382 263.274,168.523 263.274,170.619 L 263.274,174.671 L 263.273,174.671 z "
   id="path101"
   style="fill:#6d6f71" />

	<path
   d="M 124.429,182.416 C 121.58,181.828 119.105,180.302 118.511,177.399 C 118.422,176.961 118.373,176.13 118.373,172.908 L 118.373,165.211 C 118.373,161.438 118.418,160.443 118.556,159.846 C 118.982,158.047 120.331,155.802 124.287,155.059 C 125.144,154.895 126.145,154.804 131.437,154.804 C 131.437,154.804 140.944,154.804 141.084,154.804 C 141.084,155.171 141.084,158.693 141.084,159.054 C 140.679,159.054 130.784,159.054 130.784,159.054 C 127.014,159.054 126.249,159.13 125.758,159.283 C 125.032,159.517 124.577,159.923 124.351,160.519 C 124.239,160.806 124.186,161.167 124.186,163.624 L 124.186,166.508 C 124.186,166.508 139.343,166.508 139.749,166.508 C 139.749,166.872 139.749,170.263 139.749,170.62 C 139.344,170.62 124.186,170.62 124.186,170.62 L 124.186,173.669 C 124.186,176.455 124.247,176.802 124.378,177.117 C 124.622,177.691 125.086,178.066 125.81,178.281 C 126.329,178.436 126.961,178.511 130.784,178.511 C 130.784,178.511 140.854,178.511 141.256,178.511 C 141.256,178.875 141.256,182.34 141.256,182.698 C 140.854,182.698 131.824,182.698 131.824,182.698 C 126.307,182.699 125.388,182.614 124.429,182.416 z "
   id="path103"
   style="fill:#6d6f71" />

	<path
   d="M 54.419,170.311 C 54.419,167.725 54.471,166.689 54.568,166.244 C 55.042,164.14 56.599,162.729 59.058,162.169 C 59.856,161.981 60.898,161.886 64.221,161.886 L 66.696,161.886 C 69.813,161.886 71.106,162 71.903,162.199 C 74.64,162.866 75.737,164.498 76.164,165.85 C 76.383,166.548 76.424,167.242 76.424,169.701 C 76.424,169.701 76.424,182.299 76.424,182.7 C 76.058,182.7 71.698,182.7 71.332,182.7 C 71.332,182.304 71.332,169.571 71.332,169.571 C 71.332,167.989 71.298,167.325 71.231,167.08 C 71.098,166.571 70.818,166.255 70.39,166.075 C 70.059,165.935 69.021,165.874 66.349,165.874 L 64.504,165.874 C 61.828,165.874 60.755,165.939 60.417,166.091 C 60.044,166.257 59.801,166.527 59.667,166.907 C 59.579,167.156 59.54,167.597 59.54,169.57 C 59.54,169.57 59.54,182.307 59.54,182.706 C 59.108,182.706 54.851,182.706 54.419,182.706 C 54.419,182.307 54.419,170.311 54.419,170.311 z "
   id="path105"
   style="fill:#6d6f71" />

	<path
   d="M 164.204,161.894 C 164.204,162.294 164.204,182.308 164.204,182.707 C 164.589,182.707 168.95,182.707 169.338,182.707 C 169.338,182.308 169.338,162.294 169.338,161.894 C 169.198,161.894 164.589,161.894 164.204,161.894 z "
   id="path107"
   style="fill:#6d6f71" />

	<path
   d="M 164.204,154.804 C 164.204,155.204 164.204,158.657 164.204,159.061 C 164.568,159.061 168.971,159.061 169.338,159.061 C 169.338,158.656 169.338,155.204 169.338,154.804 C 169.198,154.804 164.589,154.804 164.204,154.804 z "
   id="path109"
   style="fill:#6d6f71" />

	<path
   d="M 98.143,162.64 C 98.143,165.294 98.143,174.152 98.143,174.152 C 98.143,176.233 98.099,176.982 98.001,177.256 C 97.794,177.827 97.362,178.234 96.647,178.438 C 96.3,178.542 95.778,178.6 93.699,178.6 L 90.654,178.6 C 88.273,178.6 87.75,178.501 87.358,178.317 C 86.995,178.144 86.734,177.901 86.573,177.591 C 86.431,177.309 86.365,176.837 86.365,174.658 C 86.365,174.658 86.365,165.377 86.365,162.64 L 81.27,162.64 C 81.27,165.273 81.27,173.928 81.27,173.928 C 81.27,177.629 81.312,178.008 81.395,178.433 C 81.833,180.586 83.338,181.759 85.573,182.25 L 85.591,182.256 C 86.88,182.541 87.344,182.534 90.877,182.534 C 90.877,182.534 92.676,182.534 93.226,182.534 C 97.671,182.534 98.201,181.334 98.253,181.194 L 98.253,183.561 C 98.253,184.932 98.216,185.348 98.139,185.646 C 97.99,186.202 97.641,186.596 96.857,186.805 C 96.432,186.921 95.674,186.978 92.478,186.978 C 90.56,186.978 86.13,186.978 83.587,186.978 L 83.587,190.812 L 92.784,190.812 C 97.505,190.812 98.25,190.711 98.99,190.526 C 101.435,189.912 102.655,188.381 103.052,186.599 C 103.156,186.126 103.212,185.238 103.212,182.196 L 103.212,162.64 L 98.143,162.64 z "
   id="path111"
   style="fill:#6d6f71" />

	<path
   d="M 278.007,182.375 C 278.007,181.143 278.007,169.57 278.007,169.57 C 278.007,167.597 278.041,167.156 278.126,166.907 C 278.26,166.526 278.508,166.257 278.881,166.091 C 279.22,165.939 280.292,165.874 282.966,165.874 L 284.803,165.874 C 287.482,165.874 288.523,165.935 288.855,166.075 C 289.275,166.255 289.555,166.571 289.695,167.08 C 289.759,167.325 289.792,167.99 289.792,169.571 C 289.792,169.571 289.792,181.165 289.792,182.376 L 294.888,182.376 C 294.888,181.171 294.888,169.701 294.888,169.701 C 294.888,167.243 294.841,166.548 294.622,165.85 C 294.196,164.497 293.103,162.866 290.369,162.199 C 289.57,161.999 288.272,161.886 285.159,161.886 L 282.686,161.886 C 279.36,161.886 278.316,161.98 277.514,162.169 C 275.062,162.729 273.502,164.14 273.036,166.244 C 272.933,166.689 272.878,167.725 272.878,170.311 C 272.878,170.311 272.878,181.176 272.878,182.376 L 278.007,182.376 L 278.007,182.375 z "
   id="path113"
   style="fill:#6d6f71" />

</g>
</svg>
