<?xml version="1.0" encoding="UTF-8" ?>
<!DOCTYPE svg PUBLIC "-//W3C//DTD SVG 1.1//EN" "http://www.w3.org/Graphics/SVG/1.1/DTD/svg11.dtd">
<svg width="506pt" height="111pt" viewBox="0 0 4800 1055" version="1.1" xmlns="http://www.w3.org/2000/svg">
<g id="#ffffffff">
<path fill="#ffffff" opacity="1.00" d=" M 493.84 18.38 C 540.24 11.74 587.19 10.27 634.00 10.50 C 2022.67 10.50 3411.33 10.50 4800.00 10.50 L 4800.00 461.55 C 4799.42 470.04 4799.01 478.54 4798.53 487.03 C 4792.19 586.68 4769.59 686.61 4722.12 775.04 C 4717.96 782.32 4713.90 789.65 4709.71 796.90 C 4704.56 804.98 4699.41 813.05 4694.22 821.08 C 4688.61 828.84 4683.07 836.65 4677.39 844.35 C 4671.74 851.37 4666.05 858.34 4660.37 865.32 C 4653.75 872.74 4647.03 880.05 4640.33 887.39 C 4635.48 892.19 4630.41 896.76 4625.59 901.57 C 4618.30 909.00 4610.05 915.36 4602.36 922.34 C 4594.52 928.83 4586.31 934.84 4578.31 941.11 C 4570.47 946.64 4562.49 951.97 4554.57 957.38 C 4547.28 961.93 4539.85 966.24 4532.53 970.71 C 4457.21 1013.89 4371.87 1037.41 4285.88 1046.53 C 4248.75 1050.64 4211.37 1051.70 4174.04 1051.50 C 2783.61 1051.50 1393.18 1051.51 2.75 1051.50 C 2.75 920.99 2.75 790.48 2.75 659.97 C 2.74 632.31 2.83 604.63 4.65 577.02 C 9.15 499.18 23.43 421.45 51.76 348.63 C 55.82 337.44 61.06 326.74 65.65 315.77 C 70.12 306.54 74.79 297.41 79.34 288.23 C 83.99 279.94 88.65 271.67 93.39 263.43 C 98.50 255.25 103.81 247.20 109.04 239.10 C 114.64 231.30 120.26 223.51 125.96 215.79 C 131.77 208.63 137.58 201.48 143.49 194.41 C 152.91 184.21 161.94 173.60 172.26 164.28 C 208.13 129.16 249.93 100.37 294.65 77.72 C 356.97 46.59 424.91 27.54 493.84 18.38 M 586.16 56.10 C 511.61 58.59 436.78 70.23 366.83 96.76 C 314.35 116.48 264.91 144.79 222.48 181.52 C 175.34 221.97 137.58 272.86 110.50 328.65 C 99.44 351.50 90.03 375.13 82.18 399.27 C 60.65 465.99 50.90 536.06 48.64 605.99 C 47.57 647.65 48.14 689.33 48.00 731.00 C 48.01 787.91 47.98 844.83 48.02 901.74 C 47.98 931.17 48.01 960.59 48.00 990.02 C 48.07 996.50 47.71 1003.00 48.54 1009.45 C 110.01 1009.20 171.49 1009.41 232.97 1009.34 C 1448.62 1009.34 2664.28 1009.34 3879.93 1009.34 C 3984.83 1009.42 4089.73 1009.19 4194.63 1009.46 L 4194.23 1008.32 C 4205.67 1008.73 4217.13 1008.27 4228.59 1008.56 L 4228.27 1007.32 C 4237.54 1007.46 4246.90 1008.03 4256.10 1006.55 C 4257.62 1006.36 4259.45 1006.69 4260.77 1005.52 C 4264.37 1005.42 4268.01 1005.48 4271.67 1005.49 L 4271.23 1004.32 C 4274.97 1004.05 4279.33 1005.61 4282.73 1003.51 C 4285.01 1003.45 4287.35 1003.47 4289.72 1003.56 L 4289.30 1002.34 C 4292.77 1002.53 4296.32 1002.63 4299.82 1002.02 C 4301.63 1001.33 4303.60 1001.45 4305.60 1001.43 L 4305.24 1000.32 C 4309.40 1001.11 4313.43 999.60 4317.59 999.43 L 4317.22 998.31 C 4319.29 998.41 4321.44 998.48 4323.61 998.58 L 4323.25 997.28 C 4325.00 997.38 4326.89 997.50 4328.75 997.63 L 4328.29 996.35 C 4332.17 997.20 4335.81 995.48 4339.67 995.51 L 4339.22 994.29 C 4340.93 994.38 4342.79 994.49 4344.62 994.61 L 4344.22 993.34 C 4346.02 993.17 4348.59 994.25 4349.97 992.45 C 4351.14 992.48 4352.37 992.53 4353.66 992.61 L 4353.25 991.31 C 4354.94 991.39 4356.78 991.49 4358.59 991.60 L 4358.22 990.34 C 4359.97 990.40 4362.07 990.87 4363.70 989.69 C 4366.04 989.42 4368.24 988.38 4370.70 988.48 L 4370.24 987.28 C 4371.65 987.38 4373.12 987.50 4374.64 987.63 L 4374.22 986.26 C 4375.62 986.37 4377.07 986.49 4378.58 986.63 L 4378.23 985.37 C 4379.69 985.37 4381.58 985.84 4382.75 984.44 C 4383.50 984.49 4385.00 984.59 4385.75 984.64 L 4385.28 983.32 C 4386.92 983.39 4388.70 983.47 4390.48 983.56 L 4390.30 982.20 C 4391.04 982.32 4392.51 982.54 4393.25 982.65 C 4393.31 982.29 4393.44 981.56 4393.50 981.19 C 4394.26 981.31 4395.79 981.56 4396.55 981.69 L 4396.26 980.21 C 4397.09 980.32 4398.75 980.56 4399.57 980.67 L 4399.25 979.21 C 4400.09 979.33 4401.77 979.57 4402.61 979.69 L 4402.25 978.21 C 4403.10 978.34 4404.82 978.58 4405.67 978.71 L 4405.23 977.28 C 4406.27 977.36 4408.35 977.53 4409.39 977.61 C 4409.41 977.26 4409.44 976.56 4409.45 976.21 C 4410.07 976.29 4411.31 976.46 4411.93 976.54 C 4412.38 974.66 4414.20 975.63 4415.61 975.62 L 4415.24 974.22 C 4416.07 974.33 4417.74 974.55 4418.57 974.66 L 4418.23 973.45 C 4420.00 973.29 4421.88 972.89 4423.65 972.33 L 4423.25 971.18 C 4424.09 971.31 4425.77 971.56 4426.61 971.69 L 4426.25 970.21 C 4427.05 970.32 4428.64 970.55 4429.43 970.67 C 4429.41 970.34 4429.36 969.67 4429.34 969.34 C 4430.90 969.88 4432.03 969.51 4432.75 968.22 C 4433.21 968.34 4434.14 968.59 4434.60 968.71 L 4434.27 967.19 C 4435.09 967.31 4436.74 967.56 4437.56 967.68 L 4437.25 966.21 C 4438.00 966.32 4439.49 966.53 4440.24 966.64 C 4440.31 966.28 4440.44 965.56 4440.51 965.20 C 4441.24 965.31 4442.70 965.54 4443.43 965.65 L 4443.30 964.38 C 4444.92 965.06 4446.22 963.78 4446.90 962.45 C 4447.63 962.52 4449.11 962.65 4449.85 962.72 L 4449.24 961.48 C 4450.97 961.30 4452.87 961.12 4454.52 960.27 L 4454.29 959.39 C 4456.20 959.37 4458.96 959.39 4459.75 957.13 C 4460.20 957.31 4461.08 957.66 4461.53 957.84 L 4461.33 955.97 C 4461.95 956.22 4463.17 956.73 4463.79 956.99 L 4463.31 955.26 C 4464.13 955.36 4465.79 955.56 4466.61 955.67 L 4466.29 954.10 C 4466.85 954.26 4467.96 954.57 4468.51 954.73 L 4468.35 953.06 C 4468.90 953.23 4469.99 953.59 4470.54 953.76 L 4470.33 952.06 C 4470.87 952.24 4471.97 952.61 4472.51 952.79 L 4472.33 951.06 C 4472.88 951.24 4474.00 951.61 4474.56 951.79 L 4474.31 950.06 C 4474.87 950.25 4475.99 950.63 4476.54 950.82 L 4476.32 949.06 C 4476.89 949.25 4478.03 949.63 4478.60 949.82 L 4478.31 948.08 C 4478.87 948.27 4479.99 948.65 4480.55 948.83 L 4480.24 947.39 C 4481.67 947.31 4483.25 946.94 4484.69 946.42 L 4484.34 945.06 C 4484.89 945.26 4486.00 945.66 4486.55 945.86 L 4486.22 944.37 C 4487.59 944.75 4488.77 944.46 4489.75 943.52 C 4490.67 943.13 4491.64 942.73 4492.66 942.34 L 4492.24 941.41 C 4493.90 940.72 4495.75 940.62 4497.53 940.07 C 4497.47 939.61 4497.34 938.70 4497.28 938.24 C 4498.06 938.33 4499.61 938.52 4500.39 938.61 L 4500.18 937.26 L 4501.43 937.65 C 4501.92 937.35 4502.88 936.75 4503.37 936.45 L 4503.60 935.05 C 4504.07 935.24 4505.00 935.63 4505.47 935.82 L 4505.14 934.14 L 4506.72 934.93 L 4506.23 933.29 C 4508.00 934.02 4509.09 933.68 4509.49 932.27 L 4510.64 932.62 L 4510.34 930.94 C 4510.90 931.18 4512.02 931.67 4512.59 931.91 L 4512.27 930.13 C 4512.81 930.28 4513.89 930.57 4514.43 930.72 L 4514.19 929.22 L 4515.69 929.68 L 4515.31 928.05 L 4517.07 928.66 C 4517.18 928.37 4517.41 927.80 4517.53 927.52 C 4518.47 927.06 4519.47 926.69 4520.56 926.41 L 4520.22 925.12 L 4521.66 925.89 L 4521.28 924.12 C 4521.86 924.26 4523.02 924.56 4523.61 924.71 L 4523.34 923.04 C 4523.87 923.23 4524.92 923.61 4525.45 923.80 L 4525.25 922.41 C 4527.08 922.78 4527.81 922.06 4527.43 920.24 C 4528.21 920.31 4529.77 920.44 4530.55 920.51 C 4530.48 919.94 4530.33 918.80 4530.26 918.23 C 4531.07 918.33 4532.68 918.54 4533.49 918.64 L 4533.12 917.31 L 4534.76 917.83 L 4534.32 916.44 C 4535.37 916.11 4536.47 915.76 4537.61 915.41 L 4537.34 914.51 C 4538.35 914.09 4539.42 913.71 4540.55 913.37 L 4540.24 912.12 L 4541.87 912.87 L 4541.22 911.04 C 4541.78 911.22 4542.90 911.57 4543.46 911.74 L 4543.24 910.52 C 4544.83 910.56 4545.62 909.78 4545.60 908.18 C 4546.09 908.30 4547.06 908.54 4547.55 908.66 L 4547.31 907.35 C 4549.21 907.81 4549.93 907.06 4549.46 905.12 C 4550.01 905.29 4551.10 905.64 4551.65 905.81 L 4551.29 904.53 C 4553.28 904.59 4555.02 903.48 4556.67 902.40 L 4557.16 902.43 C 4560.26 899.08 4564.12 896.59 4567.59 893.63 C 4606.75 862.39 4640.16 824.14 4666.74 781.72 C 4700.69 727.75 4723.40 667.22 4737.03 605.07 C 4747.37 558.78 4752.61 511.48 4754.67 464.12 C 4755.51 439.45 4755.54 414.76 4755.49 390.07 C 4755.49 278.63 4755.50 167.19 4755.49 55.75 C 3409.30 55.75 2063.11 55.75 716.93 55.75 C 673.34 55.88 629.74 55.44 586.16 56.10 Z" />
<path fill="#ffffff" opacity="1.00" d=" M 1987.18 243.28 C 2002.55 230.43 2026.75 230.06 2042.45 242.54 C 2056.58 253.42 2063.37 271.54 2063.92 288.96 C 2064.11 300.56 2063.92 312.16 2064.02 323.76 C 2094.02 323.72 2124.02 323.75 2154.03 323.74 C 2169.88 323.81 2186.39 323.54 2201.22 330.01 C 2211.09 334.15 2219.54 342.36 2222.40 352.87 C 2224.99 362.49 2224.58 372.94 2221.63 382.44 C 2218.42 392.55 2210.35 400.62 2200.68 404.71 C 2184.44 411.84 2166.31 410.83 2149.00 410.88 C 2120.67 410.88 2092.33 410.87 2064.00 410.88 C 2063.99 469.57 2064.01 528.26 2064.00 586.96 C 2064.37 596.52 2064.41 606.20 2066.69 615.56 C 2068.80 624.45 2072.66 633.24 2079.30 639.69 C 2086.11 646.64 2095.42 650.57 2104.82 652.52 C 2124.01 656.66 2143.67 653.41 2162.99 652.10 C 2177.51 650.88 2193.00 648.95 2206.66 655.33 C 2217.23 660.09 2224.61 670.52 2226.56 681.83 C 2227.58 688.47 2228.21 695.33 2226.78 701.97 C 2224.78 711.84 2218.21 720.44 2209.71 725.67 C 2195.72 734.79 2178.90 737.32 2162.95 740.98 C 2138.33 746.22 2112.88 745.78 2087.98 743.00 C 2064.19 739.76 2040.25 733.41 2019.98 720.10 C 2004.90 710.50 1992.22 697.10 1983.69 681.37 C 1973.29 662.64 1968.51 641.27 1967.10 620.03 C 1965.98 595.37 1966.71 570.69 1966.51 546.02 C 1966.57 461.68 1966.40 377.33 1966.56 292.99 C 1966.43 274.67 1972.57 255.16 1987.18 243.28 Z" />
<path fill="#ffffff" opacity="1.00" d=" M 675.16 306.17 C 684.00 299.82 695.18 296.79 706.02 297.95 C 724.76 299.44 742.71 312.63 747.91 331.00 C 780.75 435.18 813.47 539.41 846.30 643.58 C 848.45 648.36 855.84 648.95 859.13 645.10 C 861.34 642.82 863.27 640.21 864.22 637.14 C 883.88 585.50 903.78 533.96 923.47 482.34 C 932.93 458.59 940.94 434.22 952.17 411.21 C 955.84 403.75 959.60 396.26 964.60 389.58 C 972.95 376.81 986.05 366.97 1001.08 363.74 C 1017.00 360.43 1034.34 362.24 1048.52 370.53 C 1060.73 377.71 1069.96 389.12 1076.40 401.60 C 1081.76 411.12 1085.47 421.45 1089.13 431.72 C 1115.60 500.94 1142.16 570.12 1168.66 639.33 C 1170.30 642.55 1173.42 644.81 1176.44 646.70 C 1179.88 648.77 1184.73 646.71 1185.95 642.97 C 1218.98 537.67 1252.20 432.42 1285.28 327.13 C 1288.09 318.41 1293.78 310.63 1301.38 305.48 C 1317.06 294.82 1339.09 294.76 1355.04 304.93 C 1371.07 315.92 1379.66 336.90 1375.25 355.94 C 1373.38 363.34 1370.87 370.56 1368.65 377.86 C 1338.59 474.43 1308.55 571.02 1278.50 667.59 C 1273.71 684.44 1265.28 700.38 1252.99 712.97 C 1226.88 740.32 1185.58 751.30 1149.16 741.66 C 1130.32 736.76 1113.06 726.43 1099.46 712.56 C 1088.53 701.20 1079.95 687.61 1074.19 672.95 C 1053.66 620.44 1033.05 567.96 1012.55 515.44 C 993.98 568.35 975.69 621.36 957.22 674.30 C 950.33 691.54 939.37 707.19 925.27 719.30 C 906.02 735.99 880.58 745.50 855.06 745.01 C 826.73 745.26 798.03 734.30 778.56 713.43 C 767.26 701.37 759.21 686.47 754.48 670.69 C 723.67 571.84 692.97 472.96 662.17 374.10 C 659.13 363.65 654.50 353.15 655.76 342.01 C 656.65 327.98 664.13 314.77 675.16 306.17 Z" />
<path fill="#ffffff" opacity="1.00" d=" M 1609.15 301.74 C 1636.00 298.42 1663.21 299.13 1690.08 301.89 C 1732.23 306.57 1774.38 319.13 1809.33 343.73 C 1840.48 365.40 1864.43 396.92 1877.60 432.45 C 1886.35 455.30 1890.97 479.60 1892.65 503.97 C 1893.62 516.63 1893.40 529.34 1893.40 542.03 C 1893.40 584.36 1893.39 626.68 1893.39 669.00 C 1893.23 681.73 1894.24 694.69 1890.94 707.14 C 1888.36 716.18 1884.76 725.25 1878.17 732.16 C 1871.74 739.29 1862.62 743.85 1853.07 744.79 C 1843.06 745.63 1832.47 744.53 1823.70 739.31 C 1816.39 734.88 1809.98 728.78 1805.71 721.34 C 1799.79 710.58 1799.62 697.88 1799.49 685.93 C 1771.51 710.84 1738.22 730.10 1701.95 739.90 C 1654.03 752.79 1602.23 751.38 1555.15 735.61 C 1517.84 723.07 1483.71 700.92 1457.68 671.33 C 1431.25 641.46 1413.37 604.21 1406.39 564.95 C 1397.91 518.07 1403.29 468.26 1424.18 425.23 C 1439.55 393.36 1463.35 365.76 1492.22 345.36 C 1526.55 320.96 1567.46 306.69 1609.15 301.74 M 1625.56 387.69 C 1588.03 391.47 1550.69 407.94 1526.38 437.42 C 1512.42 453.80 1503.27 473.93 1499.14 494.99 C 1494.79 519.81 1495.50 545.98 1504.16 569.83 C 1516.31 604.38 1545.00 631.78 1578.74 645.23 C 1600.88 654.50 1625.05 658.29 1648.98 658.05 C 1670.69 657.73 1692.47 654.42 1712.97 647.12 C 1731.57 640.28 1749.14 630.14 1763.42 616.31 C 1776.20 604.10 1786.21 589.09 1792.80 572.71 C 1801.93 550.08 1804.25 525.12 1801.91 500.96 C 1799.79 480.76 1793.69 460.70 1782.23 443.79 C 1770.93 426.79 1754.69 413.32 1736.34 404.53 C 1713.54 393.43 1688.19 388.59 1663.02 387.01 C 1650.54 386.54 1637.99 386.19 1625.56 387.69 Z" />
<path fill="#ffffff" opacity="1.00" d=" M 2941.49 300.73 C 2988.43 296.61 3036.73 302.85 3080.04 321.87 C 3115.23 337.22 3146.93 361.09 3170.08 391.84 C 3194.58 423.92 3209.16 463.24 3212.24 503.43 C 3215.74 547.41 3207.19 592.83 3185.09 631.26 C 3166.34 664.48 3138.12 692.11 3105.00 710.94 C 3069.49 731.53 3028.76 742.09 2987.95 744.55 C 2940.13 747.36 2891.13 739.33 2848.09 717.83 C 2813.82 701.00 2783.55 675.61 2762.18 643.88 C 2739.85 611.34 2727.51 572.31 2725.86 532.96 C 2723.91 489.95 2733.59 445.96 2756.08 409.02 C 2775.25 376.90 2803.40 350.40 2836.07 332.29 C 2868.31 314.09 2904.74 304.12 2941.49 300.73 M 2948.56 387.71 C 2924.80 390.22 2901.35 397.42 2881.02 410.12 C 2865.41 419.72 2851.77 432.59 2841.59 447.86 C 2829.76 465.04 2822.95 485.35 2820.55 506.00 C 2817.90 531.15 2821.17 557.21 2831.71 580.32 C 2839.69 598.04 2851.96 613.82 2867.24 625.84 C 2882.45 637.98 2900.39 646.51 2919.13 651.62 C 2944.75 658.46 2971.79 659.78 2998.02 655.91 C 3015.80 653.11 3033.35 647.91 3049.21 639.29 C 3067.69 629.73 3083.79 615.65 3095.78 598.66 C 3121.75 561.67 3125.44 511.57 3109.34 469.85 C 3102.06 451.62 3090.46 435.10 3075.59 422.26 C 3061.82 410.27 3045.45 401.48 3028.21 395.61 C 3002.64 387.27 2975.26 384.90 2948.56 387.71 Z" />
<path fill="#ffffff" opacity="1.00" d=" M 3926.57 303.81 C 3953.34 302.29 3980.19 303.19 4007.00 303.40 C 4033.53 304.12 4060.17 304.14 4086.53 307.63 C 4102.06 310.01 4118.32 314.88 4129.44 326.61 C 4141.22 338.96 4142.00 359.20 4133.48 373.54 C 4128.38 381.91 4119.52 387.29 4110.35 390.14 C 4097.97 394.14 4084.79 393.53 4071.98 393.32 C 4042.64 392.34 4013.32 390.85 3983.98 390.07 C 3957.81 389.85 3931.41 389.56 3905.60 394.39 C 3895.27 396.51 3884.52 399.32 3876.35 406.33 C 3871.15 410.68 3868.29 417.30 3867.83 423.98 C 3867.11 432.35 3868.25 441.49 3873.73 448.21 C 3880.19 456.22 3890.10 460.32 3899.63 463.49 C 3920.18 469.97 3941.64 472.89 3962.93 475.90 C 4004.49 481.02 4046.31 487.58 4085.68 502.36 C 4103.86 509.53 4121.69 518.53 4136.21 531.82 C 4149.91 543.91 4159.54 560.32 4163.80 578.06 C 4168.73 599.48 4167.77 622.09 4162.21 643.30 C 4156.96 662.67 4145.74 680.38 4130.32 693.25 C 4125.92 696.93 4121.20 700.19 4116.86 703.91 C 4101.71 715.72 4083.68 723.21 4065.28 728.23 C 4038.75 735.05 4011.31 737.65 3983.99 737.99 C 3931.95 737.99 3879.58 738.88 3828.03 730.71 C 3816.24 728.10 3803.77 727.53 3792.80 722.10 C 3783.70 717.60 3776.42 709.58 3773.06 699.99 C 3770.38 692.36 3769.66 684.10 3770.56 676.09 C 3771.73 665.79 3777.19 655.75 3786.09 650.18 C 3794.85 644.25 3805.47 641.61 3815.94 641.04 C 3824.12 639.94 3831.90 643.33 3839.92 644.39 C 3867.05 649.22 3894.53 651.84 3922.04 653.43 C 3949.66 654.75 3977.41 655.35 4005.01 653.00 C 4022.36 651.24 4040.12 648.74 4055.88 640.80 C 4063.90 636.54 4071.40 630.14 4074.51 621.35 C 4077.43 612.89 4077.57 602.61 4071.75 595.32 C 4064.23 585.71 4052.15 581.47 4040.93 577.88 C 3999.51 566.25 3956.03 566.61 3913.94 558.63 C 3890.49 554.33 3867.13 548.47 3845.38 538.53 C 3829.35 530.98 3814.00 521.21 3802.36 507.67 C 3787.96 491.51 3780.31 470.26 3778.10 448.93 C 3775.75 425.24 3778.00 400.60 3787.70 378.66 C 3795.66 360.95 3808.63 345.65 3824.56 334.58 C 3854.33 313.91 3890.98 306.33 3926.57 303.81 Z" />
<path fill="#ffffff" opacity="1.00" d=" M 3464.55 307.79 C 3511.69 303.84 3560.41 308.37 3604.33 326.81 C 3613.18 331.11 3622.31 334.96 3630.51 340.47 C 3664.13 360.03 3690.52 391.73 3703.42 428.44 C 3711.05 449.40 3714.35 471.76 3714.40 494.01 C 3714.41 551.99 3714.39 609.98 3714.39 667.96 C 3714.08 680.34 3715.26 692.84 3713.09 705.10 C 3710.92 718.11 3704.89 730.97 3694.23 739.12 C 3676.86 752.64 3649.49 751.77 3633.53 736.40 C 3621.80 724.94 3617.35 708.01 3617.02 692.04 C 3616.97 637.01 3617.01 581.98 3617.00 526.95 C 3617.09 502.37 3617.75 476.89 3608.40 453.68 C 3601.88 436.00 3589.21 420.73 3573.01 411.11 C 3553.48 399.37 3530.46 395.17 3508.00 393.87 C 3483.08 392.88 3457.48 394.25 3433.90 403.05 C 3415.57 409.77 3399.17 422.16 3388.72 438.75 C 3375.12 459.82 3370.75 485.35 3369.76 510.01 C 3369.74 565.67 3369.75 621.33 3369.75 676.99 C 3369.61 689.05 3370.49 701.32 3367.43 713.13 C 3364.60 725.90 3357.32 738.09 3346.03 745.06 C 3327.57 756.68 3300.37 753.95 3286.05 736.96 C 3275.55 724.60 3272.16 707.84 3272.25 692.01 C 3272.24 632.01 3272.25 572.01 3272.25 512.01 C 3271.95 489.90 3272.36 467.53 3277.97 446.00 C 3286.54 410.10 3307.35 377.22 3336.42 354.43 C 3351.46 342.18 3368.72 333.04 3386.53 325.55 C 3411.42 315.66 3437.89 310.02 3464.55 307.79 Z" />
<path fill="#ffffff" opacity="1.00" d=" M 2441.39 310.74 C 2471.57 309.26 2501.81 310.24 2532.01 310.58 C 2549.20 310.98 2566.41 311.44 2583.58 312.75 C 2600.54 314.31 2618.23 316.06 2633.31 324.68 C 2642.97 330.11 2650.31 339.82 2651.77 350.94 C 2654.61 365.54 2648.71 381.84 2636.04 390.03 C 2624.79 398.05 2610.65 400.91 2597.02 400.39 C 2550.00 399.80 2503.01 395.52 2455.96 397.40 C 2438.52 398.24 2420.83 399.64 2404.17 405.20 C 2396.08 408.15 2387.71 412.71 2383.78 420.77 C 2380.04 428.70 2380.15 438.07 2382.44 446.40 C 2384.79 454.82 2391.67 461.01 2399.23 464.89 C 2409.45 470.03 2420.63 472.98 2431.76 475.42 C 2460.36 481.71 2489.62 483.97 2518.48 488.77 C 2545.88 493.28 2573.22 499.08 2599.34 508.71 C 2623.25 517.71 2647.01 530.53 2662.39 551.58 C 2677.21 571.63 2681.52 597.62 2679.83 622.05 C 2678.20 644.52 2670.57 666.80 2656.82 684.77 C 2646.70 698.33 2633.45 709.42 2618.67 717.58 C 2602.98 726.24 2585.93 732.34 2568.48 736.29 C 2541.18 742.86 2513.01 745.22 2484.98 745.00 C 2455.31 745.07 2425.64 745.08 2396.01 743.47 C 2374.54 742.22 2353.02 740.42 2331.94 735.99 C 2322.67 734.11 2312.96 733.08 2304.61 728.31 C 2299.00 725.23 2294.03 720.88 2290.60 715.47 C 2285.06 707.15 2283.17 696.91 2283.47 687.05 C 2283.91 676.90 2288.81 667.15 2296.46 660.51 C 2302.83 655.25 2310.46 651.70 2318.42 649.58 C 2333.39 646.03 2348.85 648.22 2364.00 649.20 C 2402.07 652.58 2439.98 657.51 2477.98 661.44 C 2502.51 661.46 2527.38 660.59 2551.26 654.44 C 2564.22 650.92 2578.01 645.27 2585.33 633.31 C 2591.03 623.56 2591.83 609.81 2583.96 600.97 C 2575.67 591.73 2563.43 587.57 2551.85 584.19 C 2523.95 576.81 2495.08 574.30 2466.46 571.26 C 2437.62 568.79 2408.77 564.56 2381.12 555.78 C 2356.79 547.85 2332.93 535.65 2315.97 516.03 C 2303.03 501.28 2295.26 482.49 2292.34 463.20 C 2289.21 442.56 2289.83 421.14 2295.80 401.06 C 2300.80 383.75 2310.45 367.88 2323.21 355.20 C 2343.08 335.54 2369.45 323.68 2396.41 317.39 C 2411.13 313.66 2426.26 311.89 2441.39 310.74 Z" />
</g>
<g id="#00a0a0ff">
<path fill="#00a0a0" opacity="1.00" d=" M 586.16 56.10 C 629.74 55.44 673.34 55.88 716.93 55.75 C 2063.11 55.75 3409.30 55.75 4755.49 55.75 C 4755.50 167.19 4755.49 278.63 4755.49 390.07 C 4755.54 414.76 4755.51 439.45 4754.67 464.12 C 4752.61 511.48 4747.37 558.78 4737.03 605.07 C 4723.40 667.22 4700.69 727.75 4666.74 781.72 C 4640.16 824.14 4606.75 862.39 4567.59 893.63 C 4564.12 896.59 4560.26 899.08 4557.16 902.43 L 4556.67 902.40 C 4545.81 901.28 4534.90 901.90 4524.03 901.75 C 3032.02 901.75 1540.02 901.76 48.02 901.74 C 47.98 844.83 48.01 787.91 48.00 731.00 C 48.14 689.33 47.57 647.65 48.64 605.99 C 50.90 536.06 60.65 465.99 82.18 399.27 C 90.03 375.13 99.44 351.50 110.50 328.65 C 137.58 272.86 175.34 221.97 222.48 181.52 C 264.91 144.79 314.35 116.48 366.83 96.76 C 436.78 70.23 511.61 58.59 586.16 56.10 M 1987.18 243.28 C 1972.57 255.16 1966.43 274.67 1966.56 292.99 C 1966.40 377.33 1966.57 461.68 1966.51 546.02 C 1966.71 570.69 1965.98 595.37 1967.10 620.03 C 1968.51 641.27 1973.29 662.64 1983.69 681.37 C 1992.22 697.10 2004.90 710.50 2019.98 720.10 C 2040.25 733.41 2064.19 739.76 2087.98 743.00 C 2112.88 745.78 2138.33 746.22 2162.95 740.98 C 2178.90 737.32 2195.72 734.79 2209.71 725.67 C 2218.21 720.44 2224.78 711.84 2226.78 701.97 C 2228.21 695.33 2227.58 688.47 2226.56 681.83 C 2224.61 670.52 2217.23 660.09 2206.66 655.33 C 2193.00 648.95 2177.51 650.88 2162.99 652.10 C 2143.67 653.41 2124.01 656.66 2104.82 652.52 C 2095.42 650.57 2086.11 646.64 2079.30 639.69 C 2072.66 633.24 2068.80 624.45 2066.69 615.56 C 2064.41 606.20 2064.37 596.52 2064.00 586.96 C 2064.01 528.26 2063.99 469.57 2064.00 410.88 C 2092.33 410.87 2120.67 410.88 2149.00 410.88 C 2166.31 410.83 2184.44 411.84 2200.68 404.71 C 2210.35 400.62 2218.42 392.55 2221.63 382.44 C 2224.58 372.94 2224.99 362.49 2222.40 352.87 C 2219.54 342.36 2211.09 334.15 2201.22 330.01 C 2186.39 323.54 2169.88 323.81 2154.03 323.74 C 2124.02 323.75 2094.02 323.72 2064.02 323.76 C 2063.92 312.16 2064.11 300.56 2063.92 288.96 C 2063.37 271.54 2056.58 253.42 2042.45 242.54 C 2026.75 230.06 2002.55 230.43 1987.18 243.28 M 675.16 306.17 C 664.13 314.77 656.65 327.98 655.76 342.01 C 654.50 353.15 659.13 363.65 662.17 374.10 C 692.97 472.96 723.67 571.84 754.48 670.69 C 759.21 686.47 767.26 701.37 778.56 713.43 C 798.03 734.30 826.73 745.26 855.06 745.01 C 880.58 745.50 906.02 735.99 925.27 719.30 C 939.37 707.19 950.33 691.54 957.22 674.30 C 975.69 621.36 993.98 568.35 1012.55 515.44 C 1033.05 567.96 1053.66 620.44 1074.19 672.95 C 1079.95 687.61 1088.53 701.20 1099.46 712.56 C 1113.06 726.43 1130.32 736.76 1149.16 741.66 C 1185.58 751.30 1226.88 740.32 1252.99 712.97 C 1265.28 700.38 1273.71 684.44 1278.50 667.59 C 1308.55 571.02 1338.59 474.43 1368.65 377.86 C 1370.87 370.56 1373.38 363.34 1375.25 355.94 C 1379.66 336.90 1371.07 315.92 1355.04 304.93 C 1339.09 294.76 1317.06 294.82 1301.38 305.48 C 1293.78 310.63 1288.09 318.41 1285.28 327.13 C 1252.20 432.42 1218.98 537.67 1185.95 642.97 C 1184.73 646.71 1179.88 648.77 1176.44 646.70 C 1173.42 644.81 1170.30 642.55 1168.66 639.33 C 1142.16 570.12 1115.60 500.94 1089.13 431.72 C 1085.47 421.45 1081.76 411.12 1076.40 401.60 C 1069.96 389.12 1060.73 377.71 1048.52 370.53 C 1034.34 362.24 1017.00 360.43 1001.08 363.74 C 986.05 366.97 972.95 376.81 964.60 389.58 C 959.60 396.26 955.84 403.75 952.17 411.21 C 940.94 434.22 932.93 458.59 923.47 482.34 C 903.78 533.96 883.88 585.50 864.22 637.14 C 863.27 640.21 861.34 642.82 859.13 645.10 C 855.84 648.95 848.45 648.36 846.30 643.58 C 813.47 539.41 780.75 435.18 747.91 331.00 C 742.71 312.63 724.76 299.44 706.02 297.95 C 695.18 296.79 684.00 299.82 675.16 306.17 M 1609.15 301.74 C 1567.46 306.69 1526.55 320.96 1492.22 345.36 C 1463.35 365.76 1439.55 393.36 1424.18 425.23 C 1403.29 468.26 1397.91 518.07 1406.39 564.95 C 1413.37 604.21 1431.25 641.46 1457.68 671.33 C 1483.71 700.92 1517.84 723.07 1555.15 735.61 C 1602.23 751.38 1654.03 752.79 1701.95 739.90 C 1738.22 730.10 1771.51 710.84 1799.49 685.93 C 1799.62 697.88 1799.79 710.58 1805.71 721.34 C 1809.98 728.78 1816.39 734.88 1823.70 739.31 C 1832.47 744.53 1843.06 745.63 1853.07 744.79 C 1862.62 743.85 1871.74 739.29 1878.17 732.16 C 1884.76 725.25 1888.36 716.18 1890.94 707.14 C 1894.24 694.69 1893.23 681.73 1893.39 669.00 C 1893.39 626.68 1893.40 584.36 1893.40 542.03 C 1893.40 529.34 1893.62 516.63 1892.65 503.97 C 1890.97 479.60 1886.35 455.30 1877.60 432.45 C 1864.43 396.92 1840.48 365.40 1809.33 343.73 C 1774.38 319.13 1732.23 306.57 1690.08 301.89 C 1663.21 299.13 1636.00 298.42 1609.15 301.74 M 2941.49 300.73 C 2904.74 304.12 2868.31 314.09 2836.07 332.29 C 2803.40 350.40 2775.25 376.90 2756.08 409.02 C 2733.59 445.96 2723.91 489.95 2725.86 532.96 C 2727.51 572.31 2739.85 611.34 2762.18 643.88 C 2783.55 675.61 2813.82 701.00 2848.09 717.83 C 2891.13 739.33 2940.13 747.36 2987.95 744.55 C 3028.76 742.09 3069.49 731.53 3105.00 710.94 C 3138.12 692.11 3166.34 664.48 3185.09 631.26 C 3207.19 592.83 3215.74 547.41 3212.24 503.43 C 3209.16 463.24 3194.58 423.92 3170.08 391.84 C 3146.93 361.09 3115.23 337.22 3080.04 321.87 C 3036.73 302.85 2988.43 296.61 2941.49 300.73 M 3926.57 303.81 C 3890.98 306.33 3854.33 313.91 3824.56 334.58 C 3808.63 345.65 3795.66 360.95 3787.70 378.66 C 3778.00 400.60 3775.75 425.24 3778.10 448.93 C 3780.31 470.26 3787.96 491.51 3802.36 507.67 C 3814.00 521.21 3829.35 530.98 3845.38 538.53 C 3867.13 548.47 3890.49 554.33 3913.94 558.63 C 3956.03 566.61 3999.51 566.25 4040.93 577.88 C 4052.15 581.47 4064.23 585.71 4071.75 595.32 C 4077.57 602.61 4077.43 612.89 4074.51 621.35 C 4071.40 630.14 4063.90 636.54 4055.88 640.80 C 4040.12 648.74 4022.36 651.24 4005.01 653.00 C 3977.41 655.35 3949.66 654.75 3922.04 653.43 C 3894.53 651.84 3867.05 649.22 3839.92 644.39 C 3831.90 643.33 3824.12 639.94 3815.94 641.04 C 3805.47 641.61 3794.85 644.25 3786.09 650.18 C 3777.19 655.75 3771.73 665.79 3770.56 676.09 C 3769.66 684.10 3770.38 692.36 3773.06 699.99 C 3776.42 709.58 3783.70 717.60 3792.80 722.10 C 3803.77 727.53 3816.24 728.10 3828.03 730.71 C 3879.58 738.88 3931.95 737.99 3983.99 737.99 C 4011.31 737.65 4038.75 735.05 4065.28 728.23 C 4083.68 723.21 4101.71 715.72 4116.86 703.91 C 4121.20 700.19 4125.92 696.93 4130.32 693.25 C 4145.74 680.38 4156.96 662.67 4162.21 643.30 C 4167.77 622.09 4168.73 599.48 4163.80 578.06 C 4159.54 560.32 4149.91 543.91 4136.21 531.82 C 4121.69 518.53 4103.86 509.53 4085.68 502.36 C 4046.31 487.58 4004.49 481.02 3962.93 475.90 C 3941.64 472.89 3920.18 469.97 3899.63 463.49 C 3890.10 460.32 3880.19 456.22 3873.73 448.21 C 3868.25 441.49 3867.11 432.35 3867.83 423.98 C 3868.29 417.30 3871.15 410.68 3876.35 406.33 C 3884.52 399.32 3895.27 396.51 3905.60 394.39 C 3931.41 389.56 3957.81 389.85 3983.98 390.07 C 4013.32 390.85 4042.64 392.34 4071.98 393.32 C 4084.79 393.53 4097.97 394.14 4110.35 390.14 C 4119.52 387.29 4128.38 381.91 4133.48 373.54 C 4142.00 359.20 4141.22 338.96 4129.44 326.61 C 4118.32 314.88 4102.06 310.01 4086.53 307.63 C 4060.17 304.14 4033.53 304.12 4007.00 303.40 C 3980.19 303.19 3953.34 302.29 3926.57 303.81 M 3464.55 307.79 C 3437.89 310.02 3411.42 315.66 3386.53 325.55 C 3368.72 333.04 3351.46 342.18 3336.42 354.43 C 3307.35 377.22 3286.54 410.10 3277.97 446.00 C 3272.36 467.53 3271.95 489.90 3272.25 512.01 C 3272.25 572.01 3272.24 632.01 3272.25 692.01 C 3272.16 707.84 3275.55 724.60 3286.05 736.96 C 3300.37 753.95 3327.57 756.68 3346.03 745.06 C 3357.32 738.09 3364.60 725.90 3367.43 713.13 C 3370.49 701.32 3369.61 689.05 3369.75 676.99 C 3369.75 621.33 3369.74 565.67 3369.76 510.01 C 3370.75 485.35 3375.12 459.82 3388.72 438.75 C 3399.17 422.16 3415.57 409.77 3433.90 403.05 C 3457.48 394.25 3483.08 392.88 3508.00 393.87 C 3530.46 395.17 3553.48 399.37 3573.01 411.11 C 3589.21 420.73 3601.88 436.00 3608.40 453.68 C 3617.75 476.89 3617.09 502.37 3617.00 526.95 C 3617.01 581.98 3616.97 637.01 3617.02 692.04 C 3617.35 708.01 3621.80 724.94 3633.53 736.40 C 3649.49 751.77 3676.86 752.64 3694.23 739.12 C 3704.89 730.97 3710.92 718.11 3713.09 705.10 C 3715.26 692.84 3714.08 680.34 3714.39 667.96 C 3714.39 609.98 3714.41 551.99 3714.40 494.01 C 3714.35 471.76 3711.05 449.40 3703.42 428.44 C 3690.52 391.73 3664.13 360.03 3630.51 340.47 C 3622.31 334.96 3613.18 331.11 3604.33 326.81 C 3560.41 308.37 3511.69 303.84 3464.55 307.79 M 2441.39 310.74 C 2426.26 311.89 2411.13 313.66 2396.41 317.39 C 2369.45 323.68 2343.08 335.54 2323.21 355.20 C 2310.45 367.88 2300.80 383.75 2295.80 401.06 C 2289.83 421.14 2289.21 442.56 2292.34 463.20 C 2295.26 482.49 2303.03 501.28 2315.97 516.03 C 2332.93 535.65 2356.79 547.85 2381.12 555.78 C 2408.77 564.56 2437.62 568.79 2466.46 571.26 C 2495.08 574.30 2523.95 576.81 2551.85 584.19 C 2563.43 587.57 2575.67 591.73 2583.96 600.97 C 2591.83 609.81 2591.03 623.56 2585.33 633.31 C 2578.01 645.27 2564.22 650.92 2551.26 654.44 C 2527.38 660.59 2502.51 661.46 2477.98 661.44 C 2439.98 657.51 2402.07 652.58 2364.00 649.20 C 2348.85 648.22 2333.39 646.03 2318.42 649.58 C 2310.46 651.70 2302.83 655.25 2296.46 660.51 C 2288.81 667.15 2283.91 676.90 2283.47 687.05 C 2283.17 696.91 2285.06 707.15 2290.60 715.47 C 2294.03 720.88 2299.00 725.23 2304.61 728.31 C 2312.96 733.08 2322.67 734.11 2331.94 735.99 C 2353.02 740.42 2374.54 742.22 2396.01 743.47 C 2425.64 745.08 2455.31 745.07 2484.98 745.00 C 2513.01 745.22 2541.18 742.86 2568.48 736.29 C 2585.93 732.34 2602.98 726.24 2618.67 717.58 C 2633.45 709.42 2646.70 698.33 2656.82 684.77 C 2670.57 666.80 2678.20 644.52 2679.83 622.05 C 2681.52 597.62 2677.21 571.63 2662.39 551.58 C 2647.01 530.53 2623.25 517.71 2599.34 508.71 C 2573.22 499.08 2545.88 493.28 2518.48 488.77 C 2489.62 483.97 2460.36 481.71 2431.76 475.42 C 2420.63 472.98 2409.45 470.03 2399.23 464.89 C 2391.67 461.01 2384.79 454.82 2382.44 446.40 C 2380.15 438.07 2380.04 428.70 2383.78 420.77 C 2387.71 412.71 2396.08 408.15 2404.17 405.20 C 2420.83 399.64 2438.52 398.24 2455.96 397.40 C 2503.01 395.52 2550.00 399.80 2597.02 400.39 C 2610.65 400.91 2624.79 398.05 2636.04 390.03 C 2648.71 381.84 2654.61 365.54 2651.77 350.94 C 2650.31 339.82 2642.97 330.11 2633.31 324.68 C 2618.23 316.06 2600.54 314.31 2583.58 312.75 C 2566.41 311.44 2549.20 310.98 2532.01 310.58 C 2501.81 310.24 2471.57 309.26 2441.39 310.74 Z" />
<path fill="#00a0a0" opacity="1.00" d=" M 1625.56 387.69 C 1637.99 386.19 1650.54 386.54 1663.02 387.01 C 1688.19 388.59 1713.54 393.43 1736.34 404.53 C 1754.69 413.32 1770.93 426.79 1782.23 443.79 C 1793.69 460.70 1799.79 480.76 1801.91 500.96 C 1804.25 525.12 1801.93 550.08 1792.80 572.71 C 1786.21 589.09 1776.20 604.10 1763.42 616.31 C 1749.14 630.14 1731.57 640.28 1712.97 647.12 C 1692.47 654.42 1670.69 657.73 1648.98 658.05 C 1625.05 658.29 1600.88 654.50 1578.74 645.23 C 1545.00 631.78 1516.31 604.38 1504.16 569.83 C 1495.50 545.98 1494.79 519.81 1499.14 494.99 C 1503.27 473.93 1512.42 453.80 1526.38 437.42 C 1550.69 407.94 1588.03 391.47 1625.56 387.69 Z" />
<path fill="#00a0a0" opacity="1.00" d=" M 2948.56 387.71 C 2975.26 384.90 3002.64 387.27 3028.21 395.61 C 3045.45 401.48 3061.82 410.27 3075.59 422.26 C 3090.46 435.10 3102.06 451.62 3109.34 469.85 C 3125.44 511.57 3121.75 561.67 3095.78 598.66 C 3083.79 615.65 3067.69 629.73 3049.21 639.29 C 3033.35 647.91 3015.80 653.11 2998.02 655.91 C 2971.79 659.78 2944.75 658.46 2919.13 651.62 C 2900.39 646.51 2882.45 637.98 2867.24 625.84 C 2851.96 613.82 2839.69 598.04 2831.71 580.32 C 2821.17 557.21 2817.90 531.15 2820.55 506.00 C 2822.95 485.35 2829.76 465.04 2841.59 447.86 C 2851.77 432.59 2865.41 419.72 2881.02 410.12 C 2901.35 397.42 2924.80 390.22 2948.56 387.71 Z" />
</g>
<g id="#e42313ff">
<path fill="#e42313" opacity="1.00" d=" M 48.02 901.74 C 1540.02 901.76 3032.02 901.75 4524.03 901.75 C 4534.90 901.90 4545.81 901.28 4556.67 902.40 C 4555.02 903.48 4553.28 904.59 4551.29 904.53 L 4551.65 905.81 C 4551.10 905.64 4550.01 905.29 4549.46 905.12 C 4549.93 907.06 4549.21 907.81 4547.31 907.35 L 4547.55 908.66 C 4547.06 908.54 4546.09 908.30 4545.60 908.18 C 4545.62 909.78 4544.83 910.56 4543.24 910.52 L 4543.46 911.74 C 4542.90 911.57 4541.78 911.22 4541.22 911.04 L 4541.87 912.87 L 4540.24 912.12 L 4540.55 913.37 C 4539.42 913.71 4538.35 914.09 4537.34 914.51 L 4537.61 915.41 C 4536.47 915.76 4535.37 916.11 4534.32 916.44 L 4534.76 917.83 L 4533.12 917.31 L 4533.49 918.64 C 4532.68 918.54 4531.07 918.33 4530.26 918.23 C 4530.33 918.80 4530.48 919.94 4530.55 920.51 C 4529.77 920.44 4528.21 920.31 4527.43 920.24 C 4527.81 922.06 4527.08 922.78 4525.25 922.41 L 4525.45 923.80 C 4524.92 923.61 4523.87 923.23 4523.34 923.04 L 4523.61 924.71 C 4523.02 924.56 4521.86 924.26 4521.28 924.12 L 4521.66 925.89 L 4520.22 925.12 L 4520.56 926.41 C 4519.47 926.69 4518.47 927.06 4517.53 927.52 C 4517.41 927.80 4517.18 928.37 4517.07 928.66 L 4515.31 928.05 L 4515.69 929.68 L 4514.19 929.22 L 4514.43 930.72 C 4513.89 930.57 4512.81 930.28 4512.27 930.13 L 4512.59 931.91 C 4512.02 931.67 4510.90 931.18 4510.34 930.94 L 4510.64 932.62 L 4509.49 932.27 C 4509.09 933.68 4508.00 934.02 4506.23 933.29 L 4506.72 934.93 L 4505.14 934.14 L 4505.47 935.82 C 4505.00 935.63 4504.07 935.24 4503.60 935.05 L 4503.37 936.45 C 4502.88 936.75 4501.92 937.35 4501.43 937.65 L 4500.18 937.26 L 4500.39 938.61 C 4499.61 938.52 4498.06 938.33 4497.28 938.24 C 4497.34 938.70 4497.47 939.61 4497.53 940.07 C 4495.75 940.62 4493.90 940.72 4492.24 941.41 L 4492.66 942.34 C 4491.64 942.73 4490.67 943.13 4489.75 943.52 C 4488.77 944.46 4487.59 944.75 4486.22 944.37 L 4486.55 945.86 C 4486.00 945.66 4484.89 945.26 4484.34 945.06 L 4484.69 946.42 C 4483.25 946.94 4481.67 947.31 4480.24 947.39 L 4480.55 948.83 C 4479.99 948.65 4478.87 948.27 4478.31 948.08 L 4478.60 949.82 C 4478.03 949.63 4476.89 949.25 4476.32 949.06 L 4476.54 950.82 C 4475.99 950.63 4474.87 950.25 4474.31 950.06 L 4474.56 951.79 C 4474.00 951.61 4472.88 951.24 4472.33 951.06 L 4472.51 952.79 C 4471.97 952.61 4470.87 952.24 4470.33 952.06 L 4470.54 953.76 C 4469.99 953.59 4468.90 953.23 4468.35 953.06 L 4468.51 954.73 C 4467.96 954.57 4466.85 954.26 4466.29 954.10 L 4466.61 955.67 C 4465.79 955.56 4464.13 955.36 4463.31 955.26 L 4463.79 956.99 C 4463.17 956.73 4461.95 956.22 4461.33 955.97 L 4461.53 957.84 C 4461.08 957.66 4460.20 957.31 4459.75 957.13 C 4458.96 959.39 4456.20 959.37 4454.29 959.39 L 4454.52 960.27 C 4452.87 961.12 4450.97 961.30 4449.24 961.48 L 4449.85 962.72 C 4449.11 962.65 4447.63 962.52 4446.90 962.45 C 4446.22 963.78 4444.92 965.06 4443.30 964.38 L 4443.43 965.65 C 4442.70 965.54 4441.24 965.31 4440.51 965.20 C 4440.44 965.56 4440.31 966.28 4440.24 966.64 C 4439.49 966.53 4438.00 966.32 4437.25 966.21 L 4437.56 967.68 C 4436.74 967.56 4435.09 967.31 4434.27 967.19 L 4434.60 968.71 C 4434.14 968.59 4433.21 968.34 4432.75 968.22 C 4432.03 969.51 4430.90 969.88 4429.34 969.34 C 4429.36 969.67 4429.41 970.34 4429.43 970.67 C 4428.64 970.55 4427.05 970.32 4426.25 970.21 L 4426.61 971.69 C 4425.77 971.56 4424.09 971.31 4423.25 971.18 L 4423.65 972.33 C 4421.88 972.89 4420.00 973.29 4418.23 973.45 L 4418.57 974.66 C 4417.74 974.55 4416.07 974.33 4415.24 974.22 L 4415.61 975.62 C 4414.20 975.63 4412.38 974.66 4411.93 976.54 C 4411.31 976.46 4410.07 976.29 4409.45 976.21 C 4409.44 976.56 4409.41 977.26 4409.39 977.61 C 4408.35 977.53 4406.27 977.36 4405.23 977.28 L 4405.67 978.71 C 4404.82 978.58 4403.10 978.34 4402.25 978.21 L 4402.61 979.69 C 4401.77 979.57 4400.09 979.33 4399.25 979.21 L 4399.57 980.67 C 4398.75 980.56 4397.09 980.32 4396.26 980.21 L 4396.55 981.69 C 4395.79 981.56 4394.26 981.31 4393.50 981.19 C 4393.44 981.56 4393.31 982.29 4393.25 982.65 C 4392.51 982.54 4391.04 982.32 4390.30 982.20 L 4390.48 983.56 C 4388.70 983.47 4386.92 983.39 4385.28 983.32 L 4385.75 984.64 C 4385.00 984.59 4383.50 984.49 4382.75 984.44 C 4381.58 985.84 4379.69 985.37 4378.23 985.37 L 4378.58 986.63 C 4377.07 986.49 4375.62 986.37 4374.22 986.26 L 4374.64 987.63 C 4373.12 987.50 4371.65 987.38 4370.24 987.28 L 4370.70 988.48 C 4368.24 988.38 4366.04 989.42 4363.70 989.69 C 4362.07 990.87 4359.97 990.40 4358.22 990.34 L 4358.59 991.60 C 4356.78 991.49 4354.94 991.39 4353.25 991.31 L 4353.66 992.61 C 4352.37 992.53 4351.14 992.48 4349.97 992.45 C 4348.59 994.25 4346.02 993.17 4344.22 993.34 L 4344.62 994.61 C 4342.79 994.49 4340.93 994.38 4339.22 994.29 L 4339.67 995.51 C 4335.81 995.48 4332.17 997.20 4328.29 996.35 L 4328.75 997.63 C 4326.89 997.50 4325.00 997.38 4323.25 997.28 L 4323.61 998.58 C 4321.44 998.48 4319.29 998.41 4317.22 998.31 L 4317.59 999.43 C 4313.43 999.60 4309.40 1001.11 4305.24 1000.32 L 4305.60 1001.43 C 4303.60 1001.45 4301.63 1001.33 4299.82 1002.02 C 4296.32 1002.63 4292.77 1002.53 4289.30 1002.34 L 4289.72 1003.56 C 4287.35 1003.47 4285.01 1003.45 4282.73 1003.51 C 4279.33 1005.61 4274.97 1004.05 4271.23 1004.32 L 4271.67 1005.49 C 4268.01 1005.48 4264.37 1005.42 4260.77 1005.52 C 4259.45 1006.69 4257.62 1006.36 4256.10 1006.55 C 4246.90 1008.03 4237.54 1007.46 4228.27 1007.32 L 4228.59 1008.56 C 4217.13 1008.27 4205.67 1008.73 4194.23 1008.32 L 4194.63 1009.46 C 4089.73 1009.19 3984.83 1009.42 3879.93 1009.34 C 2664.28 1009.34 1448.62 1009.34 232.97 1009.34 C 171.49 1009.41 110.01 1009.20 48.54 1009.45 C 47.71 1003.00 48.07 996.50 48.00 990.02 C 48.01 960.59 47.98 931.17 48.02 901.74 Z" />
</g>
</svg>
